<?xml version="1.0" standalone="no"?>
<!DOCTYPE svg PUBLIC "-//W3C//DTD SVG 20010904//EN"
 "http://www.w3.org/TR/2001/REC-SVG-20010904/DTD/svg10.dtd">
<svg version="1.0" xmlns="http://www.w3.org/2000/svg"
 width="120.000000pt" height="120.000000pt" viewBox="0 0 120.000000 120.000000"
 preserveAspectRatio="xMidYMid meet">
<metadata>
Created by potrace 1.11, written by Peter Selinger 2001-2013
</metadata>
<g transform="translate(0.000000,120.000000) scale(0.100000,-0.100000)"
fill="#000000" stroke="none">
<path d="M512 1096 c-17 -5 -32 -13 -32 -19 0 -5 -20 -39 -44 -76 -70 -107
-84 -155 -87 -307 -2 -106 -11 -166 -35 -239 l-16 -50 45 -95 c29 -59 48 -114
51 -145 3 -31 11 -54 22 -62 27 -19 74 -15 119 10 33 19 39 27 40 56 1 27 -7
41 -37 69 -70 65 -37 113 74 108 63 -3 88 -17 88 -51 0 -23 -41 -75 -60 -75
-5 0 -10 -20 -10 -45 0 -44 2 -47 43 -65 85 -39 133 -19 135 54 1 35 55 169
88 219 9 14 8 29 -7 70 -25 69 -36 150 -38 266 -2 118 -25 193 -87 288 -24 37
-44 70 -44 74 0 11 -91 29 -135 27 -22 -1 -55 -7 -73 -12z m-11 -362 c13 -11
18 -26 15 -43 -2 -14 -5 -29 -5 -32 -1 -4 -14 -12 -31 -19 -66 -27 -114 55
-59 102 23 19 53 16 80 -8z m292 -5 c23 -29 22 -45 -8 -74 -30 -31 -49 -31
-80 -1 -28 28 -26 62 5 88 25 21 59 15 83 -13z"/>
<path d="M361 1079 c-145 -58 -275 -156 -329 -248 -42 -73 -36 -126 27 -236
48 -84 91 -194 91 -234 0 -28 11 -32 39 -15 72 42 111 166 116 368 1 56 8 121
15 146 13 51 62 152 91 188 10 14 19 29 19 33 0 12 -38 10 -69 -2z"/>
<path d="M770 1084 c0 -3 14 -25 31 -50 65 -95 96 -199 98 -328 1 -185 38
-304 110 -355 l31 -22 10 26 c5 14 10 32 10 39 0 31 43 134 91 217 45 79 51
94 47 132 -10 91 -75 171 -206 258 -94 62 -222 110 -222 83z"/>
</g>
</svg>
